<?xml version="1.0" encoding="iso-8859-1"?>
<!-- Generator: Adobe Illustrator 18.0.0, SVG Export Plug-In . SVG Version: 6.00 Build 0)  -->
<!DOCTYPE svg PUBLIC "-//W3C//DTD SVG 1.1//EN" "http://www.w3.org/Graphics/SVG/1.1/DTD/svg11.dtd">
<svg version="1.1" id="Capa_1" xmlns="http://www.w3.org/2000/svg" xmlns:xlink="http://www.w3.org/1999/xlink" x="0px" y="0px"
	 viewBox="0 0 297 297" style="enable-background:new 0 0 297 297;" xml:space="preserve">
<g>
	<path d="M120.683,72.724l-21.678-2.333c-0.027,5.482-0.208,11.992-0.503,19.119l26.292,2.83
		C123.74,84.633,122.378,77.842,120.683,72.724z"/>
	<path d="M84.735,68.855L62.58,66.471c-1.134,5.167-2.361,11.596-3.621,18.783l25.318,2.725
		C84.575,80.688,84.744,74.146,84.735,68.855z"/>
	<path d="M0.726,155.418c-2.511,23.335,1.479,39.755,12.198,50.199c4.405,4.292,10.15,7.757,17.318,10.439
		c-1.059-9.322-0.604-22.097,1.274-39.547c1.811-16.821,6.257-50.202,10.85-78.658L13.827,94.78
		C7.534,115.463,2.433,139.56,0.726,155.418z"/>
	<path d="M45.734,178.039c-2.66,24.711-1.931,36.574-0.306,42.14c3.635,0.691,7.503,1.264,11.632,1.708
		c4.129,0.444,8.03,0.708,11.729,0.805c2.772-5.092,6.008-16.529,8.667-41.24c1.767-16.413,4.569-50.528,6.131-79.165l-26.997-2.905
		C52.023,127.694,47.5,161.624,45.734,178.039z"/>
	<path d="M48.312,64.936l-21.679-2.333c-2.746,4.64-5.522,10.985-8.192,18.291l26.294,2.83
		C45.964,76.697,47.172,70.297,48.312,64.936z"/>
	<path d="M284.575,132.503c-2.261-3.712-4.786-7.13-7.581-10.028H255.34c1.098,3.234,2.071,6.582,2.912,10.028H284.575z"/>
	<path d="M160.867,146.803h-30.518c-3.597,9.676-5.56,19.827-5.56,28.161c0,29.342,22.902,47.238,51.138,55.031
		c-10.087-15.715-16.32-38.327-16.32-63.859C159.607,159.564,160.039,153.086,160.867,146.803z"/>
	<path d="M178.296,132.503h25.449v-10.028h-22.074C180.396,125.661,179.268,129.013,178.296,132.503z"/>
	<path d="M240.117,122.475h-22.072v10.028h25.448C242.521,129.013,241.393,125.661,240.117,122.475z"/>
	<path d="M166.449,122.475h-21.653c-2.796,2.899-5.32,6.316-7.581,10.028h26.323C164.379,129.056,165.351,125.709,166.449,122.475z"
		/>
	<path d="M291.44,146.803h-30.518c0.829,6.283,1.261,12.762,1.261,19.333c0,25.531-6.234,48.144-16.32,63.859
		C274.098,222.201,297,204.306,297,174.963C297,166.629,295.038,156.479,291.44,146.803z"/>
	<path d="M173.906,166.136c0,30.674,10.378,57.619,24.501,67.882c1.778,0.161,3.558,0.287,5.338,0.379v-87.595h-28.443
		C174.389,153.034,173.906,159.519,173.906,166.136z"/>
	<path d="M126.565,109.839c-0.071-0.985-0.138-1.976-0.217-2.949l-28.537-3.071c-1.567,28.783-4.326,62.345-6.136,79.164
		c-1.878,17.449-4.152,30.029-7.17,38.912c7.575-1.095,13.925-3.258,19.142-6.514c2.837-1.77,5.394-3.925,7.703-6.435
		c-5.616-10.297-8.559-21.79-8.559-33.983C102.79,155.004,110.931,127.814,126.565,109.839z"/>
	<path d="M246.487,146.803h-28.443v87.595c1.78-0.092,3.56-0.218,5.338-0.379c14.123-10.264,24.501-37.208,24.501-67.882
		C247.883,159.519,247.401,153.034,246.487,146.803z"/>
</g>
<g>
</g>
<g>
</g>
<g>
</g>
<g>
</g>
<g>
</g>
<g>
</g>
<g>
</g>
<g>
</g>
<g>
</g>
<g>
</g>
<g>
</g>
<g>
</g>
<g>
</g>
<g>
</g>
<g>
</g>
</svg>
