<?xml version="1.0" encoding="iso-8859-1"?>
<!-- Generator: Adobe Illustrator 18.0.0, SVG Export Plug-In . SVG Version: 6.00 Build 0)  -->
<!DOCTYPE svg PUBLIC "-//W3C//DTD SVG 1.1//EN" "http://www.w3.org/Graphics/SVG/1.1/DTD/svg11.dtd">
<svg version="1.1" id="Capa_1" xmlns="http://www.w3.org/2000/svg" xmlns:xlink="http://www.w3.org/1999/xlink" x="0px" y="0px"
	 viewBox="0 0 297 297" style="enable-background:new 0 0 297 297;" xml:space="preserve">
<g>
	<polygon points="64.245,259.172 42.356,291.867 108.295,296.996 116.559,276.542 	"/>
	<path d="M120.972,265.622l19.645-48.618c1.102-5.474,1.66-11.076,1.66-16.659v-83.293c0-6.219-5.06-11.277-11.278-11.277h-8.396
		v52.144c0,3.32-2.692,6.012-6.012,6.012c-3.32,0-6.012-2.692-6.012-6.012V99.898c-0.01-0.427,0.026-0.859,0.111-1.289
		c0.083-0.429,0.212-0.842,0.381-1.233l21.033-51.802L136.895,0L85.026,81.214c-11.675,18.282-15.119,41.985-9.694,66.742
		c4.013,18.316,11.38,72.186,11.691,74.47c0.2,1.456-0.143,2.935-0.961,4.157l-14.881,22.227L120.972,265.622z"/>
	<polygon points="179.874,276.577 188.258,297 254.644,291.871 232.28,259.19 	"/>
	<path d="M225.218,248.87l-15.215-22.235c-0.842-1.231-1.197-2.73-0.995-4.208c0.312-2.284,7.678-56.155,11.692-74.471
		c5.424-24.757,1.98-48.46-9.695-66.741L159.136,0l4.791,45.574l21.033,51.802c0.169,0.391,0.298,0.804,0.381,1.233
		c0.085,0.43,0.121,0.862,0.111,1.289v58.021c0,3.32-2.692,6.012-6.012,6.012c-3.32,0-6.012-2.692-6.012-6.012v-52.144h-8.396
		c-6.219,0-11.278,5.059-11.278,11.277v83.293c0,5.577,0.557,11.174,1.657,16.643l20.014,48.751L225.218,248.87z"/>
</g>
<g>
</g>
<g>
</g>
<g>
</g>
<g>
</g>
<g>
</g>
<g>
</g>
<g>
</g>
<g>
</g>
<g>
</g>
<g>
</g>
<g>
</g>
<g>
</g>
<g>
</g>
<g>
</g>
<g>
</g>
</svg>
